<svg id="Ebene_1" data-name="Ebene 1" xmlns="http://www.w3.org/2000/svg" xmlns:xlink="http://www.w3.org/1999/xlink" viewBox="0 0 200 200"><defs><style>.cls-1,.cls-11{fill:none;}.cls-14,.cls-15,.cls-2{fill:#fff;}.cls-3{fill:#dff2fd;}.cls-4{fill:#484847;}.cls-5{fill:#9c9c9c;}.cls-17,.cls-6{fill:#004699;}.cls-7{fill:#ececec;}.cls-8{clip-path:url(#clip-path);}.cls-9{fill:#2b2a29;}.cls-10{opacity:0.1;}.cls-11{stroke:#565655;stroke-linecap:round;stroke-miterlimit:10;stroke-width:1.92px;}.cls-12,.cls-13{fill:#181716;}.cls-13{font-size:3.17px;font-family:CargoTwoSF, Cargo Two SF;}.cls-14{opacity:0.08;}.cls-15{opacity:0.05;}.cls-16{fill:#62b443;opacity:0.8;}.cls-17{font-size:5.3px;font-family:DINOT-Bold, DIN OT;font-weight:700;}.cls-18{letter-spacing:-0.01em;}.cls-19{fill:#f3d3ae;}.cls-20{fill:#f4e7db;}</style><clipPath id="clip-path"><path class="cls-1" d="M100,167.32A67.32,67.32,0,1,0,32.68,100,67.32,67.32,0,0,0,100,167.32"/></clipPath></defs><title> 03_Park</title><circle class="cls-2" cx="100" cy="100" r="73.7"/><circle class="cls-3" cx="100" cy="100" r="67.32"/><path class="cls-4" d="M96,140.59H64.29a4,4,0,0,1-4-4V68.38a4,4,0,0,1,4-4H96a4,4,0,0,1,4,4v68.24a4,4,0,0,1-4,4"/><path class="cls-2" d="M97.2,130.76H62.32V69.17H98.07V129.9a.87.87,0,0,1-.87.86"/><path class="cls-5" d="M83.11,67.13H76a.4.4,0,0,1-.4-.4.39.39,0,0,1,.4-.39h7.1a.39.39,0,0,1,.4.39.4.4,0,0,1-.4.4"/><path class="cls-5" d="M81.55,137.93h-4a2,2,0,1,1,0-3.92h4a2,2,0,1,1,0,3.92"/><path class="cls-4" d="M96,140.59H64.29a4,4,0,0,1-4-4V68.38a4,4,0,0,1,4-4H96a4,4,0,0,1,4,4v68.24a4,4,0,0,1-4,4"/><path class="cls-6" d="M97.13,130.76h-34a.87.87,0,0,1-.87-.86V70a.87.87,0,0,1,.87-.87h34A.87.87,0,0,1,98,70V129.9a.87.87,0,0,1-.87.86"/><path class="cls-5" d="M83.11,67.13H76a.4.4,0,0,1-.4-.4.39.39,0,0,1,.4-.39h7.1a.39.39,0,0,1,.4.39.4.4,0,0,1-.4.4"/><path class="cls-5" d="M81.55,137.93h-4a2,2,0,1,1,0-3.92h4a2,2,0,1,1,0,3.92"/><path class="cls-5" d="M86.81,66.73a.66.66,0,1,1,.65.66.65.65,0,0,1-.65-.66"/><path class="cls-7" d="M76.46,136.07c.56-1.82,4-1.89,5.31-1.22-1.42.43-4.56-.5-5.31,1.22"/><g class="cls-8"><path class="cls-9" d="M138.75,109.84a14.57,14.57,0,0,0-14.56,14.56l0,49.58,29.13,0c0-7.43,0-49.5,0-49.62A14.58,14.58,0,0,0,138.75,109.84Z"/><path class="cls-9" d="M121.6,132.87l0-8.47a17.12,17.12,0,1,1,34.24,0h0s0,3.71,0,8.51a22.35,22.35,0,0,0,2.25-25.69V92.38a3.16,3.16,0,0,0-.47-1.64l-1.34-2.15a3.13,3.13,0,0,0-2.65-1.47H123.82a3.12,3.12,0,0,0-2.67,1.52l-1.33,2.22a3.22,3.22,0,0,0-.43,1.6v14.76h0a22.36,22.36,0,0,0,2.21,25.65Z"/><rect class="cls-6" x="130.53" y="126.87" width="16.48" height="47.11" rx="4.26"/><rect class="cls-6" x="126.53" y="90.37" width="23.79" height="12.11" rx="0.92"/><rect class="cls-2" x="128.38" y="93.04" width="20.02" height="6.77" rx="1.65"/><path class="cls-9" d="M121.6,109.8l-2.45,4.51a1.54,1.54,0,0,1-2.26.51l-5.71-4.1a1.56,1.56,0,0,1-.46-2l1.6-2.94a1.55,1.55,0,0,1,1.92-.71l6.56,2.55A1.55,1.55,0,0,1,121.6,109.8Z"/><path class="cls-6" d="M117.79,114.57a.94.94,0,0,1-.58-.19l-5.71-4.1a1,1,0,0,1-.3-1.3l1.6-2.94a1,1,0,0,1,.88-.53.94.94,0,0,1,.37.07l6.55,2.55a1,1,0,0,1,.58.59,1,1,0,0,1-.06.82l-2.45,4.51A1,1,0,0,1,117.79,114.57Z"/><g class="cls-10"><path class="cls-2" d="M120.9,109.47a.32.32,0,0,0-.13-.43.31.31,0,0,0-.43.13l-1.91,3.5c-.23.43-.39.61-.54.64s-.44-.09-.86-.4l-4.83-3.42a.32.32,0,0,0-.45.07.32.32,0,0,0,.08.45l4.83,3.42a1.85,1.85,0,0,0,1.37.51c.44-.1.71-.51,1-1l1.91-3.5Z"/></g><circle class="cls-2" cx="138.73" cy="136.73" r="6.47" transform="translate(-7.39 7.93) rotate(-3.19)"/><g id="logo_text" data-name="logo text"><path id="SVGID" class="cls-6" d="M136.37,139.59a.35.35,0,0,1,.33-.36.33.33,0,0,1,.28.18l-.6.25s0,0,0-.07m-.16,0a.5.5,0,0,0,.5.5.47.47,0,0,0,.47-.32H137a.32.32,0,0,1-.3.17.32.32,0,0,1-.28-.15l.75-.32a.5.5,0,0,0-.48-.4.5.5,0,0,0-.49.52"/><path id="SVGID-2" data-name="SVGID" class="cls-6" d="M139.06,139.59a.33.33,0,1,1,.33.37.35.35,0,0,1-.33-.37m-.16-.91v.91a.49.49,0,1,0,.49-.51.43.43,0,0,0-.33.17v-.57Z"/><path id="SVGID-3" data-name="SVGID" class="cls-6" d="M141.59,139.59a.35.35,0,0,1,.33-.36.33.33,0,0,1,.28.18l-.6.25a.15.15,0,0,1,0-.07m-.16,0a.5.5,0,0,0,.5.5.47.47,0,0,0,.47-.32h-.17a.32.32,0,0,1-.3.17.32.32,0,0,1-.28-.15l.75-.32a.49.49,0,0,0-1,.12"/><path id="SVGID-4" data-name="SVGID" class="cls-6" d="M135.35,139.21v-.1h-.15v1h.16v-.6a.25.25,0,0,1,.26-.25.23.23,0,0,1,.23.26v.59H136v-.59a.36.36,0,0,0-.37-.41.38.38,0,0,0-.29.13"/><polygon id="SVGID-5" data-name="SVGID" class="cls-6" points="140.98 139.47 141.35 139.11 141.12 139.11 140.67 139.54 140.67 138.67 140.51 138.67 140.51 140.08 140.67 140.08 140.67 139.77 140.86 139.59 141.19 140.08 141.39 140.08 140.98 139.47"/><polygon class="cls-6" points="137.94 139.11 137.72 139.46 137.49 139.11 137.29 139.11 137.62 139.58 137.27 140.08 137.47 140.08 137.72 139.7 137.97 140.08 138.16 140.08 137.81 139.58 138.14 139.11 137.94 139.11"/><rect id="SVGID-6" data-name="SVGID" class="cls-6" x="140.07" y="139.18" width="0.16" height="0.9"/><path class="cls-6" d="M140.24,139a.09.09,0,1,1-.18,0,.09.09,0,1,1,.18,0Z"/><path id="SVGID-7" data-name="SVGID" class="cls-6" d="M138.31,138.9v.82a.33.33,0,0,0,.39.36v-.15a.19.19,0,0,1-.23-.21v-.46h.22v-.15h-.22v-.21Z"/></g><g id="bike"><path class="cls-6" d="M135.36,135.2a2.17,2.17,0,0,0,1.66,1,2.24,2.24,0,0,0,1.25-.17c.16-.09-.22-.09-.42-.81a1.57,1.57,0,0,0-.49-1,2.67,2.67,0,0,0-1.79-.53,2.75,2.75,0,0,0-1,.14c-.06.12.34.27.47.41s0,.17,0,.26.31.29.33.36S135.26,135,135.36,135.2Z"/><path class="cls-6" d="M141.35,137.79a1.16,1.16,0,0,1-1.12-1.2,1.13,1.13,0,1,1,2.25,0,1.16,1.16,0,0,1-1.13,1.2m0-2.91a1.68,1.68,0,0,0-1.68,1.71,1.69,1.69,0,1,0,3.37,0,1.69,1.69,0,0,0-1.69-1.71"/><path class="cls-6" d="M136.74,134.88h0Z"/><path class="cls-6" d="M141.15,134.2c0-.34-.44-.58-.63-.65a.26.26,0,0,0-.36.12c-.06.11,0,.26.19.32s.24.15.22.21-.23.1-.6.29a1.69,1.69,0,0,0-.52.42,3.48,3.48,0,0,0-.44.69,1.76,1.76,0,0,1-1.14.89v.1a1.13,1.13,0,1,1-2.25,0,1.32,1.32,0,0,1,.13-.56,3.31,3.31,0,0,1-.44-.4,1.83,1.83,0,0,0-.25,1,1.68,1.68,0,0,0,3.33.33h0a1.83,1.83,0,0,0,1-1,1.91,1.91,0,0,1,.75-1C140.59,134.73,141.15,134.6,141.15,134.2Z"/></g><line class="cls-11" x1="126.53" y1="128.15" x2="126.53" y2="173.87"/><path class="cls-12" d="M144,93.56h-1.82v1.82H144ZM143.62,95h-1.1v-1.1h1.1Z"/><rect class="cls-12" x="146.53" y="94.16" width="0.62" height="0.62"/><rect class="cls-12" x="142.76" y="94.16" width="0.62" height="0.62"/><rect class="cls-12" x="142.76" y="97.94" width="0.62" height="0.62"/><path class="cls-12" d="M142.16,99.16H144V97.33h-1.82Zm.36-1.46h1.1v1.1h-1.1Z"/><path class="cls-12" d="M145.93,93.56v1.82h1.82V93.56ZM147.39,95h-1.1v-1.1h1.1Z"/><polygon class="cls-12" points="147.39 96.8 146.45 96.8 146.45 97.54 145.49 97.54 145.49 97.9 145.67 97.9 145.67 98.25 146.51 98.25 146.51 97.9 146.81 97.9 146.81 97.16 147.75 97.16 147.75 95.84 147.39 95.84 147.39 96.8"/><polygon class="cls-12" points="147.39 98.8 146.51 98.8 146.51 99.16 147.75 99.16 147.75 97.93 147.39 97.93 147.39 98.8"/><polygon class="cls-12" points="142.17 96.12 143.82 96.12 143.82 96.65 144.18 96.65 144.18 95.76 142.17 95.76 142.17 96.12"/><rect class="cls-12" x="142.17" y="96.47" width="0.98" height="0.36"/><rect class="cls-12" x="144.78" y="95.58" width="0.36" height="2.62"/><polygon class="cls-12" points="145.37 96.83 146.21 96.83 146.21 96.47 146.62 96.47 146.62 96.12 147.04 96.12 147.04 95.76 146.2 95.76 146.2 96.11 145.78 96.11 145.78 96.47 145.37 96.47 145.37 96.83"/><polygon class="cls-12" points="145.15 94.9 145.75 94.9 145.75 94.54 144.91 94.54 144.91 93.57 144.54 93.57 144.54 94.9 144.3 94.9 144.3 95.26 145.15 95.26 145.15 94.9"/><rect class="cls-12" x="144.29" y="98.79" width="1.56" height="0.36"/><text class="cls-13" transform="translate(129.8 97.99)">12345</text><path class="cls-14" d="M125.72,103.21a1.2,1.2,0,0,1-.19-.48V90.13a.66.66,0,0,1,.64-.68h24.51a.62.62,0,0,1,.45.19C150.18,90.58,125.72,103.21,125.72,103.21Z"/><path class="cls-15" d="M125.53,103.11V90.18a.76.76,0,0,1,.76-.76H151a.16.16,0,0,1,.08.3s-25.22,13.51-25.42,13.5A.11.11,0,0,1,125.53,103.11Z"/><path class="cls-2" d="M118.75,109.65l-.42.11a1.2,1.2,0,0,0-1.42-.92,1.19,1.19,0,0,0-.78,1.49l-.41.11a1.63,1.63,0,0,1,1.07-2A1.67,1.67,0,0,1,118.75,109.65Z"/><path class="cls-2" d="M118.71,109.78l-2.92.77a.22.22,0,0,0-.16.28l.41,1.52a.24.24,0,0,0,.28.17l2.92-.77a.23.23,0,0,0,.17-.28L119,110A.24.24,0,0,0,118.71,109.78Zm-.61,2-.79.2-.09-.64a.52.52,0,0,1-.24-.3.47.47,0,0,1,.34-.58.48.48,0,0,1,.59.34.47.47,0,0,1-.06.37Z"/><path class="cls-2" d="M114.18,108.45a1.85,1.85,0,0,1,.58-2.59l-.59-.23a2.43,2.43,0,0,0-.84,3.38l-.43.28,1.32.4.46-1.57Z"/><path class="cls-16" d="M112.55,116.87V114a.29.29,0,0,0-.28-.28H111a.28.28,0,0,0-.28.28v2.84a.28.28,0,0,1-.28.28h-2a.29.29,0,0,0-.25.43l3.21,5.55a.28.28,0,0,0,.49,0l3.2-5.55a.28.28,0,0,0-.24-.43h-2A.28.28,0,0,1,112.55,116.87Z"/><path class="cls-2" d="M69.76,112.77H90.47a3,3,0,0,0,0-5.88H69.76a3,3,0,0,0,0,5.88"/><text class="cls-17" transform="translate(74.37 111.63)"><tspan class="cls-18">P</tspan><tspan x="3.28" y="0">ark</tspan></text><path class="cls-19" d="M8.08,143.82c-.85,3.05-1,8.14.1,10.27s-1.39,8.23-2.1,9.81S-8.5,186.39-8.5,186.39a2.79,2.79,0,0,0,1.13,3.52l15.8,9.45a2.79,2.79,0,0,0,3.74-.83s13.44-20.18,17.16-25.81,8.87-6.91,15.1-8.11,9.66-6.39,10.84-8.42a115.94,115.94,0,0,1,7.4-10.42c.91-1,3.17-3.19,4.46-4.45a1.31,1.31,0,0,0-.38-2,7.86,7.86,0,0,0-4.68-1c-4.2.27-10.5,8.29-10.5,8.29a27.41,27.41,0,0,1-3,3.36c.07-.22.14-.45.23-.69a92.57,92.57,0,0,1,5.86-8.14,207.62,207.62,0,0,0,16.73-23.69s2.84-4.14.25-6.78a4,4,0,0,0-5.41-.28,3.71,3.71,0,0,0-.49.56c-3.4,4.39-8.21,9.72-10.23,12.15-1.05,1.26-2.74,3.29-4.78,6h0c-.2.23-2.75,3-5,3.07s-3.32-2.53-3.33-2.54a5.66,5.66,0,0,0-5.78-2.14c-3.75.84-4.36-.19-5-.77s-2.78-2-4.58-1.27a10.74,10.74,0,0,0-1.22.57,2.11,2.11,0,0,1-1.4.32,5,5,0,0,1-2.25-1.14,3.82,3.82,0,0,0-4.74-.57,8.21,8.21,0,0,0-2.63,2.35,25.42,25.42,0,0,0-1.36,2.37A74.92,74.92,0,0,0,8.08,143.82Z"/><path class="cls-20" d="M69.55,117.91c-.41.37-.86.82-1.45.71a7.94,7.94,0,0,1-2.38-1.15,2.39,2.39,0,0,1-1.21-1.36,3.43,3.43,0,0,1,.38-2.79,12.36,12.36,0,0,1,1.94-2.55,2.57,2.57,0,0,1,2.36-.76,4.06,4.06,0,0,1,3,2.42,3.2,3.2,0,0,1-.52,2.75,10,10,0,0,1-2.1,2.73"/><path class="cls-20" d="M63.85,142.12l-.16.15a10.69,10.69,0,0,1-1.76,1.1l-.09.07a10.52,10.52,0,0,1-1.42.93l-1.51.89s-.32-.25-.29-.3l.12-.2a5.39,5.39,0,0,1,1.74-1.82,9.7,9.7,0,0,1,3.26-1.07c.2,0,.14.21.11.25"/></g></svg>