<svg id="Ebene_1" data-name="Ebene 1" xmlns="http://www.w3.org/2000/svg" xmlns:xlink="http://www.w3.org/1999/xlink" viewBox="0 0 200 200"><defs><style>.cls-1,.cls-21{fill:none;}.cls-2{fill:#fff;}.cls-3{fill:#dff2fd;}.cls-4{clip-path:url(#clip-path);}.cls-5{fill:#4680b5;}.cls-6{fill:#eeceac;}.cls-7{fill:#9e7b5f;}.cls-8{fill:#444;}.cls-9{fill:#023364;}.cls-10{fill:#84888d;}.cls-11{fill:#343434;}.cls-12{fill:#aed5ab;}.cls-13{fill:#38ab65;}.cls-14{fill:#181716;}.cls-15{fill:#efe3d8;}.cls-16{fill:#bababb;}.cls-17{fill:#d4d3d3;}.cls-18{fill:#d32218;}.cls-19{fill:#3a3a39;}.cls-20{fill:#e63027;}.cls-21{stroke:#d32218;stroke-miterlimit:10;}.cls-22{fill:#2b2a29;}.cls-23{fill:#004699;}.cls-24{clip-path:url(#clip-path-2);}</style><clipPath id="clip-path"><circle class="cls-1" cx="100" cy="100" r="67.32"/></clipPath><clipPath id="clip-path-2"><ellipse class="cls-1" cx="126.81" cy="90.95" rx="28.58" ry="20.68"/></clipPath></defs><title>02_Rental</title><circle class="cls-2" cx="100" cy="100" r="73.7"/><circle class="cls-3" cx="100" cy="100" r="67.32"/><g class="cls-4"><rect class="cls-5" x="58.97" y="157.89" width="12.59" height="31.05" rx="1.39" transform="translate(-118.58 196.48) rotate(-76.53)"/><path class="cls-6" d="M55.78,156.11c.5-3.3,1.83-4.29,2.12-6.64a9.63,9.63,0,0,0-.34-3.35c-1.31-6.45-2.28-7.26-2.88-11A24.63,24.63,0,0,1,55.1,125a37.45,37.45,0,0,1,1.57-4.17c2.84-8,1.39-18.17.14-22.17a11.51,11.51,0,0,1-.48-4.18A5.43,5.43,0,0,1,57.49,91a3.93,3.93,0,0,1,2.87-1.37,4.42,4.42,0,0,1,3,1.72c1.07,1.09,1.43,2.07,2.33,4.1a48.88,48.88,0,0,0,2.12,4.52c1.81,2.84,4.67,3.1,7.19,4.44,2.7,1.44,2.65,2.86,7.73,11.5,5.83,9.92,9.92,16.86,12.93,18.68a3.69,3.69,0,0,1,1.85,2.12,4.16,4.16,0,0,1-.68,2.81,7.63,7.63,0,0,1-1.78,2.12c-2,1.66-1.6,2.31-5.82,7.25-.86,1-2.58,3-4.31,5.2A11.11,11.11,0,0,0,83.22,157a14.83,14.83,0,0,0-.62,2.18c-.49,2.15-.46,2.88-.61,3.29-1.39,3.71-25.79.77-26.35-5A6.13,6.13,0,0,1,55.78,156.11Z"/><path class="cls-7" d="M63,127.06c1.06,1.85,1.89,3.61,2.76,5.31s1.72,3.35,2.65,4.95,1.91,3.16,3,4.73l3.4,4.88A13.52,13.52,0,0,1,69.21,144a17.85,17.85,0,0,1-4-4.85A18.72,18.72,0,0,1,63,133.3,15.25,15.25,0,0,1,63,127.06Z"/><path class="cls-6" d="M102.6,84.09,106,81a8.76,8.76,0,0,1,2-1.55,5.45,5.45,0,0,1,3.55-.78,5,5,0,0,1,2.4,1.11,4.75,4.75,0,0,1,1.15,1.41,5.24,5.24,0,0,1-.14,4.49,9.44,9.44,0,0,1-1.91,2,34.91,34.91,0,0,1-2.88,2.4C108,91.7,107.76,91.59,106,93c-1.39,1.09-1.4,1.28-2.65,2.21-1.89,1.41-3.13,2.33-3.68,2.06C99,96.87,99,94.35,102.6,84.09Z"/><path class="cls-7" d="M107.44,90.07a2.56,2.56,0,0,1-1.61-.24,3.19,3.19,0,0,1-1.22-1.06,2.54,2.54,0,0,1,0-3.14l.86,1.16c.24.33.45.62.66.93s.42.63.63,1A8.55,8.55,0,0,1,107.44,90.07Z"/><rect class="cls-8" x="64.68" y="65.12" width="40.42" height="77.6" rx="4.04"/><rect class="cls-9" x="60.74" y="148.47" width="13.27" height="33.39" rx="1.24" transform="translate(-108.94 192.2) rotate(-76.53)"/><rect class="cls-2" x="66.73" y="69.97" width="36.41" height="62.74" rx="3.03"/><rect class="cls-10" x="80.26" y="67.08" width="8.05" height="0.81" rx="0.26"/><rect class="cls-10" x="80.26" y="136.01" width="8.05" height="4" rx="1.3"/><circle class="cls-10" cx="92.34" cy="67.49" r="0.67"/><path class="cls-11" d="M76.05,92.87h2.64V90.23H76.05Z"/><path class="cls-11" d="M91.3,92.87h2.64V90.23H91.3Z"/><rect class="cls-12" x="58.97" y="157.89" width="12.59" height="31.05" rx="1.39" transform="translate(-118.58 196.48) rotate(-76.53)"/><path class="cls-6" d="M55.78,156.11c.5-3.3,1.83-4.29,2.12-6.64a9.63,9.63,0,0,0-.34-3.35c-1.31-6.45-2.28-7.26-2.88-11A24.63,24.63,0,0,1,55.1,125a37.45,37.45,0,0,1,1.57-4.17c2.84-8,1.39-18.17.14-22.17a11.51,11.51,0,0,1-.48-4.18A5.43,5.43,0,0,1,57.49,91a3.93,3.93,0,0,1,2.87-1.37,4.42,4.42,0,0,1,3,1.72c1.07,1.09,1.43,2.07,2.33,4.1a48.88,48.88,0,0,0,2.12,4.52c1.81,2.84,4.67,3.1,7.19,4.44,2.7,1.44,2.65,2.86,7.73,11.5,5.83,9.92,9.92,16.86,12.93,18.68a3.69,3.69,0,0,1,1.85,2.12,4.16,4.16,0,0,1-.68,2.81,7.63,7.63,0,0,1-1.78,2.12c-2,1.66-1.6,2.31-5.82,7.25-.86,1-2.58,3-4.31,5.2A11.11,11.11,0,0,0,83.22,157a14.83,14.83,0,0,0-.62,2.18c-.49,2.15-.46,2.88-.61,3.29-1.39,3.71-25.79.77-26.35-5A6.13,6.13,0,0,1,55.78,156.11Z"/><path class="cls-7" d="M63,127.06a57.79,57.79,0,0,0,1.77,5.64A35.39,35.39,0,0,0,67.26,138c.23.43.5.84.75,1.25s.54.81.82,1.21.56.8.86,1.18.6.76.92,1.14a38.18,38.18,0,0,0,4.17,4.17,19.79,19.79,0,0,1-4.8-3.6,23.23,23.23,0,0,1-3.67-4.8l-.36-.66-.35-.68c-.23-.45-.43-.91-.64-1.37A29.18,29.18,0,0,1,64,133,23.84,23.84,0,0,1,63,127.06Z"/><path class="cls-6" d="M102.6,84.09,106,81a8.76,8.76,0,0,1,2-1.55,5.45,5.45,0,0,1,3.55-.78,5,5,0,0,1,2.4,1.11,4.75,4.75,0,0,1,1.15,1.41,5.24,5.24,0,0,1-.14,4.49,9.44,9.44,0,0,1-1.91,2,34.91,34.91,0,0,1-2.88,2.4C108,91.7,107.76,91.59,106,93c-1.39,1.09-1.4,1.28-2.65,2.21-1.89,1.41-3.13,2.33-3.68,2.06C99,96.87,99,94.35,102.6,84.09Z"/><path class="cls-7" d="M107.44,90.07a3.9,3.9,0,0,1-1.27-.64,4.3,4.3,0,0,1-1-1,3.9,3.9,0,0,1-.58-1.34,3,3,0,0,1,.06-1.43,6.81,6.81,0,0,0,.35,1.31,6.06,6.06,0,0,0,.62,1.15,7.34,7.34,0,0,0,.84,1C106.76,89.44,107.1,89.75,107.44,90.07Z"/><rect class="cls-8" x="64.68" y="65.12" width="40.42" height="77.6" rx="4.04"/><rect class="cls-13" x="60.74" y="148.47" width="13.27" height="33.39" rx="1.24" transform="translate(-108.94 192.2) rotate(-76.53)"/><rect class="cls-14" x="66.66" y="69.97" width="36.41" height="62.74" rx="1.94"/><rect class="cls-10" x="80.26" y="67.08" width="8.05" height="0.81" rx="0.26"/><rect class="cls-10" x="80.26" y="136.01" width="8.05" height="4" rx="1.3"/><circle class="cls-10" cx="92.34" cy="67.49" r="0.67"/><path class="cls-15" d="M57.1,92.37c.12-.33.43-1.12.69-1.06s.48,1.91.47,2.9c0,.7-.06.56-.11,1.67,0,1.5,0,2.24-.19,2.31s-.45-.37-.56-.54A6.26,6.26,0,0,1,57.1,92.37Z"/><rect class="cls-2" x="73.16" y="92.97" width="23.4" height="23.4" rx="1.96"/><path class="cls-15" d="M57.1,92.37c.12-.33.43-1.12.69-1.06s.48,1.91.47,2.9c0,.7-.06.56-.11,1.67,0,1.5,0,2.24-.19,2.31s-.45-.37-.56-.54A6.26,6.26,0,0,1,57.1,92.37Z"/><rect class="cls-16" x="68.23" y="70.96" width="6.84" height="1.05" rx="0.34"/><rect class="cls-8" x="79.01" y="81.73" width="12.43" height="1.05" rx="0.34"/><rect class="cls-8" x="79.01" y="86.01" width="12.43" height="1.05" rx="0.34"/><rect class="cls-8" x="76.09" y="83.87" width="18.26" height="1.05" rx="0.34"/><rect class="cls-16" x="76.55" y="70.96" width="3.22" height="1.05" rx="0.34"/><rect class="cls-16" x="98.96" y="70.96" width="3.22" height="1.05" rx="0.34"/><rect class="cls-16" x="96.43" y="70.96" width="1.61" height="1.05" rx="0.34"/><path class="cls-17" d="M81.13,138.11c.56-1.85,4-1.93,5.4-1.24C85.09,137.31,81.89,136.36,81.13,138.11Z"/><path class="cls-6" d="M106.53,98.29a16.58,16.58,0,0,0-2.33,1.93c-1.19,1-1.37.76-2.43,1.7a5.65,5.65,0,0,0-1.8,2.14,4.18,4.18,0,0,0,1.12,4.53,4.68,4.68,0,0,0,3.55.78,8.11,8.11,0,0,0,3.45-1.27,12.61,12.61,0,0,0,3.45-2.61l.73-.72a3.37,3.37,0,0,0,.76-3.58,6,6,0,0,0-.91-1.58,5.13,5.13,0,0,0-2.29-1.7,3.3,3.3,0,0,0-3.3.38Z"/><path class="cls-15" d="M104.37,109.63c2-.63,3.52-2.13,2.33-4-.7-1.14-1.89-3.34-3.52-3.41a4.48,4.48,0,0,0-3.52,3C99.3,107.44,102,110.37,104.37,109.63Z"/><path class="cls-6" d="M106.58,111.81a14.83,14.83,0,0,0-2.33,1.45c-1.18.7-1.32.51-2.4,1.23a5.12,5.12,0,0,0-1.88,1.7,3.81,3.81,0,0,0,.45,4.2,4.22,4.22,0,0,0,3.1,1.14,7.41,7.41,0,0,0,3.26-.71,11.45,11.45,0,0,0,3.42-1.93l.74-.55a3,3,0,0,0,1.13-3.12,5.33,5.33,0,0,0-.63-1.54,4.69,4.69,0,0,0-1.84-1.81,3,3,0,0,0-3-.06Z"/><path class="cls-15" d="M103.47,121.74c1.77-.39,3.33-1.58,2.49-3.39-.58-1.25-1.58-3.47-3.24-3.43a3.7,3.7,0,0,0-3.17,2.88C99.45,119.69,101.41,122.18,103.47,121.74Z"/><path class="cls-6" d="M105.7,125.14c-1.55.49-2,1.25-3.51,1.91-1.26.55-1.22.61-2.37,1.19a15.15,15.15,0,0,0-2.24,1.18c-1.09.82-1,2.94-.08,4.23a4.22,4.22,0,0,0,2.93,1.51c1.24.22,2.13-.62,3.21-1a35.92,35.92,0,0,0,4.29-2.16l.81-.46c1-.61,2.12-1.11,2-2.3a5.71,5.71,0,0,0-.43-1.6,4.77,4.77,0,0,0-1.61-2,3.17,3.17,0,0,0-1.48-.62A3.12,3.12,0,0,0,105.7,125.14Z"/><path class="cls-15" d="M100.78,135.15c1.09-.36,2.66-1.39,2.31-2.73-.28-1-1.87-3.17-3.07-3.4-1.43-.27-3.4,1.17-3.33,2.65C96.77,133.42,98.89,135.78,100.78,135.15Z"/><polygon class="cls-2" points="99.58 95.8 97.98 95.8 97.98 91.58 93.78 91.58 93.78 89.98 99.58 89.98 99.58 95.8"/><polygon class="cls-2" points="99.58 119.05 93.76 119.05 93.76 117.45 97.98 117.45 97.98 113.26 99.58 113.26 99.58 119.05"/><polygon class="cls-2" points="70.51 119.07 70.51 113.24 72.11 113.24 72.11 117.47 76.3 117.47 76.3 119.07 70.51 119.07"/><polygon class="cls-2" points="72.11 95.79 70.51 95.79 70.51 89.99 76.33 89.99 76.33 91.59 72.11 91.59 72.11 95.79"/><path class="cls-14" d="M81.21,95.11H75v6.21h6.22Zm-1.23,5H76.23V96.34H80Z"/><rect class="cls-14" x="77.03" y="110.03" width="2.14" height="2.14"/><rect class="cls-14" x="89.93" y="97.21" width="2.01" height="2.01"/><rect class="cls-14" x="77.1" y="97.21" width="2.01" height="2.01"/><path class="cls-14" d="M75,114.2h6.22V108H75Zm1.24-5H80V113H76.23Z"/><path class="cls-14" d="M87.83,95.11v6.21H94V95.11Zm5,5H89.06V96.34h3.75Z"/><polygon class="cls-14" points="92.81 106.18 89.63 106.18 89.63 108.68 86.35 108.68 86.35 109.91 86.97 109.91 86.97 111.1 89.84 111.1 89.84 109.91 90.86 109.91 90.86 107.41 94.04 107.41 94.04 102.89 92.81 102.89 92.81 106.18"/><polygon class="cls-14" points="92.81 112.97 89.84 112.97 89.84 114.2 94.04 114.2 94.04 110.03 92.81 110.03 92.81 112.97"/><polygon class="cls-14" points="75.01 103.84 80.66 103.84 80.66 105.66 81.89 105.66 81.89 102.61 75.01 102.61 75.01 103.84"/><rect class="cls-14" x="75.01" y="105.04" width="3.35" height="1.23"/><rect class="cls-14" x="83.94" y="101.99" width="1.23" height="8.94"/><polygon class="cls-14" points="85.94 106.29 88.81 106.29 88.81 105.06 90.2 105.06 90.2 103.84 91.63 103.84 91.63 102.61 88.76 102.61 88.76 103.82 87.33 103.82 87.33 105.06 85.94 105.06 85.94 106.29"/><polygon class="cls-14" points="85.17 99.68 87.22 99.68 87.22 98.45 84.35 98.45 84.35 95.16 83.12 95.16 83.12 99.68 82.3 99.68 82.3 100.92 85.17 100.92 85.17 99.68"/><rect class="cls-14" x="82.26" y="112.95" width="5.32" height="1.23"/><rect class="cls-18" x="73.64" y="103.43" width="22.45" height="1.91"/><rect class="cls-19" x="111.05" y="24.69" width="31.02" height="93" rx="15.51"/><path class="cls-20" d="M133.32,16.65H119.8c-1.82,0-3.31,2.86-3.31,6.4v79.68c0,3.53,1.49,6.39,3.31,6.39h13.52c1.83,0,3.31-2.86,3.31-6.39V23.05C136.63,19.51,135.15,16.65,133.32,16.65Z"/><path class="cls-21" d="M133.32,16.65H119.8c-1.82,0-3.31,2.86-3.31,6.4v79.68c0,3.53,1.33,5.93,3.31,6.39,0,0,3.84.28,6.57.29,2.9,0,6.95-.29,6.95-.29,2-.33,3.31-2.86,3.31-6.39V23.05C136.63,19.51,135.15,16.65,133.32,16.65Z"/><rect class="cls-22" x="108.71" y="-0.22" width="35.7" height="107.06" rx="12.4"/><path class="cls-23" d="M135.2-.22H117.92c-2.34,0-4.23,2.85-4.23,6.37V85.54c0,3.52,1.89,6.37,4.23,6.37H135.2c2.34,0,4.23-2.85,4.23-6.37V6.15C139.43,2.63,137.54-.22,135.2-.22Z"/><g class="cls-24"><rect class="cls-2" x="115.57" y="30.22" width="22.05" height="59.85" rx="2.95"/></g><path d="M122,41.84l.1,0,.61.61c1.48,1.59,2.94,3.2,4.44,4.77a4.16,4.16,0,0,0,4.18,1.36,2.77,2.77,0,0,0,2.39-3c0-1.64,0-3.29,0-4.94a2.3,2.3,0,0,0-.8-1.76,1,1,0,0,0-.58-.26c-.78,0-1.57,0-2.35,0a.61.61,0,0,0-.65.66c0,.59,0,1.18,0,1.78a.46.46,0,0,0,.49.51c.33,0,.65,0,1,0a.5.5,0,0,1,.55.52c0,.78,0,1.56,0,2.34a.85.85,0,0,1-.71.81,2.11,2.11,0,0,1-2.24-.76c-1.8-2-3.6-4-5.38-6.06a1.44,1.44,0,0,0-1.15-.51h-1.66c-.67,0-.9.24-.9.91v7.37c0,.65,0,1.29,0,1.93s.18.72.71.73h1.19c.57,0,.7-.14.7-.71,0-1.83,0-3.65,0-5.48A7.58,7.58,0,0,1,122,41.84Zm0,12.27.1,0,.61.61c1.48,1.59,2.94,3.2,4.44,4.77a4.14,4.14,0,0,0,4.18,1.36,2.76,2.76,0,0,0,2.39-3c0-1.65,0-3.3,0-4.94a2.27,2.27,0,0,0-.8-1.76,1,1,0,0,0-.58-.26c-.78,0-1.57,0-2.35,0a.61.61,0,0,0-.65.66c0,.59,0,1.19,0,1.78a.45.45,0,0,0,.49.51l1,0a.48.48,0,0,1,.55.51c0,.78,0,1.56,0,2.34a.84.84,0,0,1-.71.81,2.1,2.1,0,0,1-2.24-.76c-1.8-2-3.6-4-5.38-6a1.38,1.38,0,0,0-1.15-.51h-1.66c-.67,0-.9.23-.9.9v9.27c0,.59.16.76.74.76h1.16c.57,0,.7-.13.7-.7,0-1.83,0-3.66,0-5.48A7.77,7.77,0,0,1,122,54.11Zm5.13-45.29c0-.31,0-.55,0-.79,0-.43-.07-.87,0-1.3a.92.92,0,0,1,.87-1,5.36,5.36,0,0,1,1.26-.07,1.74,1.74,0,0,1,1.81,1.53,5.29,5.29,0,0,1,0,.8c0,1.19-.31,1.6-1.47,1.74a4.07,4.07,0,0,1-3.07-.67c-2-1.48-4.1-2.89-6.17-4.31-.21-.14-.54-.32-.74-.26s-.32.51-.31.84c0,.59,0,1.18,0,1.77A1.35,1.35,0,0,0,120,8.43c1.54,1.05,3.08,2.11,4.59,3.2a7.2,7.2,0,0,0,5.5,1.47,3.67,3.67,0,0,0,3.26-2.32,8.14,8.14,0,0,0,.36-3.88,5.74,5.74,0,0,0-.7-2.09,4.94,4.94,0,0,0-5.53-2,4,4,0,0,0-2.89,3.93.71.71,0,0,0,.34.64l1.87,1.29A3.91,3.91,0,0,0,127.15,8.82Zm-.09,12.07.09-.1c0-.23,0-.47,0-.71,0-.42-.07-.84-.05-1.27a1,1,0,0,1,.91-1,5.41,5.41,0,0,1,1.27-.05A1.69,1.69,0,0,1,131,19.26a4.41,4.41,0,0,1,.05.81c0,1.2-.31,1.6-1.47,1.74a4.08,4.08,0,0,1-3.07-.66c-2.07-1.52-4.19-2.95-6.29-4.4-.18-.12-.52-.25-.6-.18a1,1,0,0,0-.32.68c0,.7,0,1.39,0,2.09a1.16,1.16,0,0,0,.54,1q2.55,1.77,5.09,3.55a7,7,0,0,0,5.61,1.13,3.44,3.44,0,0,0,2.75-2.2,8.05,8.05,0,0,0,.37-3.95,5.58,5.58,0,0,0-.69-2.06,4.81,4.81,0,0,0-5-2.14,3.35,3.35,0,0,0-1.83.73,4.18,4.18,0,0,0-1.57,3c0,.22,0,.56.08.66C125.44,19.74,126.26,20.3,127.06,20.89Z"/><path class="cls-2" d="M122,41.84a7.58,7.58,0,0,0-.08.82c0,1.83,0,3.65,0,5.48,0,.57-.13.7-.7.71H120c-.53,0-.71-.19-.71-.73s0-1.28,0-1.93V38.82c0-.67.23-.9.9-.91h1.66a1.44,1.44,0,0,1,1.15.51c1.78,2,3.58,4,5.38,6.06a2.11,2.11,0,0,0,2.24.76.85.85,0,0,0,.71-.81c0-.78,0-1.56,0-2.34a.5.5,0,0,0-.55-.52c-.32,0-.64,0-1,0a.46.46,0,0,1-.49-.51c0-.6,0-1.19,0-1.78a.61.61,0,0,1,.65-.66c.78,0,1.57,0,2.35,0a1,1,0,0,1,.58.26,2.3,2.3,0,0,1,.8,1.76c0,1.65,0,3.3,0,4.94a2.77,2.77,0,0,1-2.39,3,4.16,4.16,0,0,1-4.18-1.36c-1.5-1.57-3-3.18-4.44-4.77l-.61-.61Z"/><path class="cls-2" d="M122,54.11a7.77,7.77,0,0,0-.08.83c0,1.82,0,3.65,0,5.48,0,.57-.13.7-.7.7h-1.16c-.58,0-.74-.17-.74-.76V51.09c0-.67.23-.9.9-.9h1.66a1.38,1.38,0,0,1,1.15.51c1.78,2,3.58,4,5.38,6a2.1,2.1,0,0,0,2.24.76.84.84,0,0,0,.71-.81c0-.78,0-1.56,0-2.34a.48.48,0,0,0-.55-.51l-1,0a.45.45,0,0,1-.49-.51c0-.59,0-1.19,0-1.78a.61.61,0,0,1,.65-.66c.78,0,1.57,0,2.35,0a1,1,0,0,1,.58.26,2.27,2.27,0,0,1,.8,1.76c0,1.64,0,3.29,0,4.94a2.76,2.76,0,0,1-2.39,3,4.14,4.14,0,0,1-4.18-1.36c-1.5-1.57-3-3.18-4.44-4.77l-.61-.61Z"/><path class="cls-2" d="M127.15,8.82a3.91,3.91,0,0,1-.37-.2l-1.87-1.29a.71.71,0,0,1-.34-.64,4,4,0,0,1,2.89-3.93A4.94,4.94,0,0,1,133,4.81a5.74,5.74,0,0,1,.7,2.09,8.14,8.14,0,0,1-.36,3.88,3.67,3.67,0,0,1-3.26,2.32,7.2,7.2,0,0,1-5.5-1.47c-1.51-1.09-3-2.15-4.59-3.2a1.35,1.35,0,0,1-.66-1.29c0-.59,0-1.18,0-1.77,0-.33,0-.73.31-.84s.53.12.74.26c2.07,1.42,4.15,2.83,6.17,4.31a4.07,4.07,0,0,0,3.07.67c1.16-.14,1.47-.55,1.47-1.74a5.29,5.29,0,0,0,0-.8,1.74,1.74,0,0,0-1.81-1.53,5.36,5.36,0,0,0-1.26.07.92.92,0,0,0-.87,1c0,.43,0,.87,0,1.3C127.16,8.27,127.15,8.51,127.15,8.82Z"/><path class="cls-2" d="M127.06,20.89c-.8-.59-1.62-1.15-2.39-1.77-.12-.1-.1-.44-.08-.66a4.18,4.18,0,0,1,1.57-3,3.35,3.35,0,0,1,1.83-.73,4.81,4.81,0,0,1,5,2.14,5.58,5.58,0,0,1,.69,2.06,8.05,8.05,0,0,1-.37,3.95,3.44,3.44,0,0,1-2.75,2.2A7,7,0,0,1,125,23.93q-2.53-1.79-5.09-3.55a1.16,1.16,0,0,1-.54-1c0-.7,0-1.39,0-2.09a1,1,0,0,1,.32-.68c.08-.07.42.06.6.18,2.1,1.45,4.22,2.88,6.29,4.4a4.08,4.08,0,0,0,3.07.66c1.16-.14,1.47-.54,1.47-1.74a4.41,4.41,0,0,0-.05-.81,1.69,1.69,0,0,0-1.76-1.51,5.41,5.41,0,0,0-1.27.05,1,1,0,0,0-.91,1c0,.43,0,.85.05,1.27,0,.24,0,.48,0,.71Z"/><path class="cls-2" d="M128.56,30.85c.06.78.12,1.49.17,2.2a3.44,3.44,0,0,1-2.86,3.61,7,7,0,0,1-3.72-.22,4,4,0,0,1-2.66-3.19,9.86,9.86,0,0,1,0-3.94A3,3,0,0,1,122,26.75a9.86,9.86,0,0,1,5.93.47,9.17,9.17,0,0,1,1.67,1c1.17.85,2.3,1.74,3.46,2.6a1.1,1.1,0,0,1,.51,1c0,.52,0,1.05,0,1.58s-.32.69-.78.52a1.83,1.83,0,0,1-.42-.26L129,31.17Zm-2.33,1.08c0-.25,0-.45,0-.64a1.72,1.72,0,0,0-1.32-1.61,3.33,3.33,0,0,0-2.07.1,1.36,1.36,0,0,0-.94,1.08,3.55,3.55,0,0,0,0,1.3,2.22,2.22,0,0,0,2.73,1.63c.76-.12,1.38-.35,1.54-1.19A4.36,4.36,0,0,0,126.23,31.93Z"/><path class="cls-14" d="M124.15,77.83h-4.53V73.3h4.53Zm-3.63-.9h2.73V74.19h-2.73Z"/><rect class="cls-14" x="121.26" y="74.94" width="1.24" height="1.24"/><rect class="cls-14" x="121.26" y="84.33" width="1.24" height="1.24"/><rect class="cls-14" x="130.62" y="74.94" width="1.24" height="1.24"/><path class="cls-14" d="M124.15,87.21h-4.53V82.68h4.53Zm-3.63-.89h2.73V83.58h-2.73Z"/><path class="cls-14" d="M133.5,77.83H129V73.3h4.53Zm-3.63-.9h2.74V74.19h-2.74Z"/><polygon class="cls-14" points="133.5 87.21 130.44 87.21 130.44 86.32 132.61 86.32 132.61 84.17 133.5 84.17 133.5 87.21"/><polygon class="cls-14" points="124.64 80.98 123.75 80.98 123.75 79.66 119.63 79.66 119.63 78.76 124.64 78.76 124.64 80.98"/><rect class="cls-14" x="119.63" y="80.54" width="2.44" height="0.9"/><rect class="cls-14" x="126.14" y="78.31" width="0.9" height="6.52"/><polygon class="cls-14" points="132.61 78.97 132.61 81.36 130.29 81.36 130.29 83.19 127.9 83.19 127.9 84.08 128.35 84.08 128.35 84.95 130.44 84.95 130.44 84.08 131.19 84.08 131.19 82.26 133.5 82.26 133.5 78.97 132.61 78.97"/><polygon class="cls-14" points="131.75 78.76 129.65 78.76 129.65 79.65 128.61 79.65 128.61 80.55 127.6 80.55 127.6 81.44 129.69 81.44 129.69 80.55 130.7 80.55 130.7 79.66 131.75 79.66 131.75 78.76"/><polygon class="cls-14" points="126.44 75.73 126.44 73.33 125.54 73.33 125.54 76.63 124.94 76.63 124.94 77.53 127.04 77.53 127.04 76.63 128.53 76.63 128.53 75.73 126.44 75.73"/><rect class="cls-14" x="124.92" y="86.3" width="3.88" height="0.9"/></g></svg>