<svg id="Ebene_1" data-name="Ebene 1" xmlns="http://www.w3.org/2000/svg" xmlns:xlink="http://www.w3.org/1999/xlink" viewBox="0 0 200 200"><defs><style>.cls-1,.cls-7{fill:none;}.cls-11,.cls-2{fill:#fff;}.cls-3{fill:#dff2fd;}.cls-4{clip-path:url(#clip-path);}.cls-5{fill:#2b2a29;}.cls-6{fill:#004699;}.cls-7{stroke:#565655;stroke-linecap:round;stroke-miterlimit:10;stroke-width:3px;}.cls-12,.cls-8{fill:#181716;}.cls-9{fill:#c5c6c6;}.cls-10{opacity:0.1;}.cls-11{opacity:0.05;}.cls-12{font-size:4.96px;font-family:CargoTwoSF, Cargo Two SF;letter-spacing:0.01em;}.cls-13{letter-spacing:-0.01em;}.cls-14{letter-spacing:0.02em;}.cls-15{letter-spacing:0em;}.cls-16{letter-spacing:0em;}.cls-17{fill:#f3d3ae;}.cls-18{fill:#d8e8c5;}.cls-19{fill:#48b065;}.cls-20{fill:#f4e7db;}.cls-21{fill:#62b443;opacity:0.8;}</style><clipPath id="clip-path"><circle class="cls-1" cx="100" cy="100" r="67.32"/></clipPath></defs><title>04_Return</title><circle class="cls-2" cx="100" cy="100" r="73.7"/><circle class="cls-3" cx="100" cy="100" r="67.32"/><g class="cls-4"><path class="cls-5" d="M73.2,136a26.75,26.75,0,0,1,53.5,0c0,.21,0,13.31,0,13.31a34.94,34.94,0,0,0,3.52-40.16V86a4.89,4.89,0,0,0-.74-2.57L127.38,80a4.87,4.87,0,0,0-4.14-2.3H76.63a4.86,4.86,0,0,0-4.18,2.38l-2.07,3.47a4.83,4.83,0,0,0-.68,2.49v23.06h0a34.92,34.92,0,0,0,3.46,40.08Z"/><path class="cls-5" d="M75.16,182.62l0-46.63a24.75,24.75,0,0,1,49.5,0c0,.18,0,37.55,0,46.7Z"/><path class="cls-3" d="M100,113.24A22.78,22.78,0,0,1,122.7,136c0,.19,0,33.08,0,44.7l-45.52-.07,0-44.63A22.77,22.77,0,0,1,100,113.24m0-4A26.75,26.75,0,0,0,73.2,136l0,48.63,53.52.07s0-48.49,0-48.7A26.75,26.75,0,0,0,100,109.24Z"/><rect class="cls-6" x="87.11" y="139.84" width="25.96" height="74.24" rx="4.26"/><rect class="cls-6" x="80.86" y="82.82" width="37.17" height="18.92" rx="0.92"/><rect class="cls-2" x="83.75" y="86.99" width="31.27" height="10.59" rx="1.65"/><circle class="cls-2" cx="99.93" cy="155.25" r="10.1" transform="translate(-8.49 5.8) rotate(-3.19)"/><g id="logo_text" data-name="logo text"><path class="cls-6" d="M96.24,159.73a.55.55,0,0,1,.52-.57.52.52,0,0,1,.43.27l-.94.4a.31.31,0,0,1,0-.1m-.25,0a.78.78,0,0,0,.78.8.74.74,0,0,0,.73-.51h-.26a.51.51,0,0,1-.47.27.54.54,0,0,1-.44-.24l1.17-.49a.77.77,0,0,0-.74-.63.78.78,0,0,0-.77.8"/><path class="cls-6" d="M100.44,159.73a.55.55,0,0,1,.52-.57.57.57,0,0,1,0,1.14.55.55,0,0,1-.52-.57m-.25-1.44v1.44a.77.77,0,1,0,.77-.8.65.65,0,0,0-.52.26v-.9Z"/><path class="cls-6" d="M104.4,159.73a.51.51,0,0,1,.95-.3l-.95.4v-.1m-.26,0a.79.79,0,0,0,.79.8.73.73,0,0,0,.72-.51h-.26a.51.51,0,0,1-.46.27.54.54,0,0,1-.45-.24l1.17-.49a.77.77,0,0,0-.74-.63.79.79,0,0,0-.77.8"/><path class="cls-6" d="M94.65,159.13V159h-.24v1.52h.25v-.93a.39.39,0,0,1,.4-.4.36.36,0,0,1,.37.4v.93h.25v-.92a.58.58,0,0,0-.59-.64.54.54,0,0,0-.44.2"/><polygon class="cls-6" points="103.43 159.54 104.02 158.97 103.65 158.97 102.96 159.65 102.96 158.29 102.71 158.29 102.71 160.49 102.96 160.49 102.96 160 103.25 159.71 103.77 160.49 104.07 160.49 103.43 159.54"/><polygon class="cls-6" points="98.7 158.97 98.34 159.51 97.99 158.97 97.68 158.97 98.19 159.7 97.65 160.49 97.95 160.49 98.34 159.9 98.73 160.49 99.04 160.49 98.49 159.7 99 158.97 98.7 158.97"/><rect class="cls-6" x="102.02" y="159.07" width="0.25" height="1.41"/><path class="cls-6" d="M102.28,158.79a.14.14,0,0,1-.14.14.15.15,0,0,1-.15-.14.15.15,0,0,1,.15-.15A.15.15,0,0,1,102.28,158.79Z"/><path class="cls-6" d="M99.27,158.64v1.29a.51.51,0,0,0,.6.55v-.23c-.19,0-.35-.05-.35-.32v-.73h.34V159h-.34v-.32Z"/></g><g id="bike"><path class="cls-6" d="M94.66,152.86a3.75,3.75,0,0,0,4.54,1.29c.25-.14-.35-.13-.65-1.25a2.45,2.45,0,0,0-.77-1.58,5.45,5.45,0,0,0-4.36-.6c-.09.19.54.42.73.65s-.05.25,0,.4.47.45.52.56S94.5,152.52,94.66,152.86Z"/><path class="cls-6" d="M104,156.91a1.82,1.82,0,0,1-1.76-1.87,1.77,1.77,0,1,1,3.53,0,1.82,1.82,0,0,1-1.77,1.87m0-4.55a2.66,2.66,0,0,0,0,5.32,2.66,2.66,0,0,0,0-5.32"/><path class="cls-6" d="M96.82,152.36h0Z"/><path class="cls-6" d="M103.71,151.3c0-.53-.69-.9-1-1a.44.44,0,0,0-.57.18.41.41,0,0,0,.3.51c.26.09.38.23.35.33s-.35.16-.93.45a2.84,2.84,0,0,0-.83.66,5.13,5.13,0,0,0-.67,1.07,2.77,2.77,0,0,1-1.79,1.4.92.92,0,0,1,0,.16,1.77,1.77,0,1,1-3.53,0,2,2,0,0,1,.21-.89,5,5,0,0,1-.7-.61,3,3,0,0,0-.38,1.5,2.63,2.63,0,0,0,5.21.51h0a2.92,2.92,0,0,0,1.65-1.59,3,3,0,0,1,1.18-1.53C102.83,152.12,103.71,151.92,103.71,151.3Z"/></g><line class="cls-7" x1="80.86" y1="141.84" x2="80.86" y2="195.07"/><path class="cls-8" d="M108.13,87.8h-2.85v2.85h2.85Zm-.56,2.28h-1.72V88.36h1.72Z"/><rect class="cls-8" x="112.1" y="88.74" width="0.97" height="0.97"/><rect class="cls-8" x="106.22" y="88.74" width="0.97" height="0.97"/><rect class="cls-8" x="106.22" y="94.64" width="0.97" height="0.97"/><path class="cls-8" d="M105.28,96.55h2.85V93.7h-2.85Zm.57-2.29h1.72V96h-1.72Z"/><path class="cls-8" d="M111.17,87.8v2.85H114V87.8Zm2.28,2.28h-1.72V88.36h1.72Z"/><polygon class="cls-8" points="113.45 92.87 111.99 92.87 111.99 94.02 110.49 94.02 110.49 94.58 110.77 94.58 110.77 95.12 112.09 95.12 112.09 94.58 112.56 94.58 112.56 93.43 114.01 93.43 114.01 91.36 113.45 91.36 113.45 92.87"/><polygon class="cls-8" points="113.45 95.98 112.09 95.98 112.09 96.55 114.01 96.55 114.01 94.63 113.45 94.63 113.45 95.98"/><polygon class="cls-8" points="105.29 91.8 107.88 91.8 107.88 92.63 108.44 92.63 108.44 91.23 105.29 91.23 105.29 91.8"/><rect class="cls-8" x="105.29" y="92.35" width="1.54" height="0.56"/><rect class="cls-8" x="109.38" y="90.95" width="0.56" height="4.1"/><polygon class="cls-8" points="110.3 92.92 111.62 92.92 111.62 92.36 112.25 92.36 112.25 91.8 112.91 91.8 112.91 91.23 111.59 91.23 111.59 91.79 110.93 91.79 110.93 92.36 110.3 92.36 110.3 92.92"/><polygon class="cls-8" points="109.95 89.89 110.89 89.89 110.89 89.33 109.57 89.33 109.57 87.82 109.01 87.82 109.01 89.89 108.63 89.89 108.63 90.46 109.95 90.46 109.95 89.89"/><rect class="cls-8" x="108.61" y="95.97" width="2.44" height="0.56"/><rect class="cls-9" x="94.37" y="44.67" width="11.26" height="33.07"/><path class="cls-5" d="M115.8,27.88a37.66,37.66,0,0,0-12.33,1.94,11.32,11.32,0,0,1-7.49,0,37.66,37.66,0,0,0-12.33-1.94c-11.61,0-21,4.56-21,10.18s9.41,10.18,21,10.18A37.66,37.66,0,0,0,96,46.3a11.32,11.32,0,0,1,7.49,0,37.66,37.66,0,0,0,12.33,1.94c11.61,0,21-4.56,21-10.18S127.41,27.88,115.8,27.88Z"/><path class="cls-5" d="M73.09,113.1l-3.81,7a2.41,2.41,0,0,1-3.52.81l-8.88-6.39a2.42,2.42,0,0,1-.71-3.11l2.49-4.58a2.41,2.41,0,0,1,3-1.09l10.19,4A2.41,2.41,0,0,1,73.09,113.1Z"/><path class="cls-6" d="M67.16,120.52a1.59,1.59,0,0,1-.91-.29l-8.87-6.39a1.57,1.57,0,0,1-.47-2l2.49-4.58a1.58,1.58,0,0,1,1.94-.72l10.19,4a1.59,1.59,0,0,1,.91.92,1.55,1.55,0,0,1-.1,1.28l-3.8,7A1.56,1.56,0,0,1,67.16,120.52Z"/><g class="cls-10"><path class="cls-2" d="M72,112.59a.49.49,0,0,0-.2-.67.5.5,0,0,0-.68.2l-3,5.44c-.35.68-.6,1-.83,1s-.69-.15-1.33-.63l-7.53-5.33a.5.5,0,0,0-.57.82l7.51,5.32a2.86,2.86,0,0,0,2.14.79c.68-.15,1.09-.79,1.49-1.5l3-5.45Z"/></g><path class="cls-2" d="M68.65,112.86,68,113a1.88,1.88,0,0,0-2.22-1.42,1.85,1.85,0,0,0-1.21,2.32l-.64.17a2.53,2.53,0,0,1,1.66-3.19A2.58,2.58,0,0,1,68.65,112.86Z"/><path class="cls-2" d="M68.6,113.07l-4.55,1.19a.36.36,0,0,0-.25.44l.64,2.37a.36.36,0,0,0,.44.25l4.55-1.19a.35.35,0,0,0,.25-.43L69,113.33A.37.37,0,0,0,68.6,113.07Zm-1,3.06-1.22.32-.14-1a.74.74,0,0,1,.15-1.37.75.75,0,0,1,.92.53.78.78,0,0,1-.09.58Z"/><path class="cls-2" d="M61.55,111a2.88,2.88,0,0,1,.9-4l-.92-.36a3.78,3.78,0,0,0-1.3,5.26l-.67.44,2.06.62.71-2.44Z"/><path class="cls-11" d="M79.3,102.15V82.58a1.19,1.19,0,0,1,1.2-1.19h39a.25.25,0,0,1,.12.47s-39.9,20.46-40.2,20.45A.17.17,0,0,1,79.3,102.15Z"/><text class="cls-12" transform="translate(85.97 94.73)">1<tspan class="cls-13" x="3.46" y="0">2</tspan><tspan class="cls-14" x="6.8" y="0">3</tspan><tspan class="cls-15" x="10.31" y="0">4</tspan><tspan class="cls-16" x="13.68" y="0">5</tspan></text><path class="cls-17" d="M33.41,47.08c4.1,1.86,10.78,3.3,17.81,7.06a23.41,23.41,0,0,1,2.09,1.34,7.53,7.53,0,0,1,2,2.5,3.46,3.46,0,0,1-.75,4.27,4.57,4.57,0,0,0-1.14,2,2,2,0,0,0,.22,1.28,8.56,8.56,0,0,1,.46,1.13c.55,1.67-.81,3.54-1.36,4.09s-1.53,1.06-1,4.5a5.15,5.15,0,0,1-2.22,5.14s-2.46.79-2.47,2.89,2.36,4.46,2.55,4.66h0c2.33,2,4.08,3.61,5.18,4.62,2.1,2,6.7,6.57,10.52,9.86a4.27,4.27,0,0,1,.48.47,3.57,3.57,0,0,1-.52,4.89c-2.51,2.23-6.13-.55-6.13-.55A189.08,189.08,0,0,1,38.51,90.91a85.57,85.57,0,0,0-7.1-5.71L30.8,85a24,24,0,0,0,2.9,2.93s7,6.1,7,9.92A7.16,7.16,0,0,1,39.56,102a1.2,1.2,0,0,1-1.85.25c-1.07-1.23-3-3.38-3.82-4.26a105.26,105.26,0,0,0-9.09-7.21,14.33,14.33,0,0,1-5.86-7.29c-.59-1.95-.76-5.16-1.49-7.31h0c-.84-2.36-7-9.38-9.91-13.21a2.3,2.3,0,0,1,0-2.81l14-16.73a2.27,2.27,0,0,1,3-.46s2.45,1.25,8.78,4.12"/><path class="cls-18" d="M17.06,38,1.69,58.4a1.3,1.3,0,0,1-1.82.25l-7.65-5.77A1.31,1.31,0,0,1-8,51.06L7.33,30.67a1.31,1.31,0,0,1,1.82-.26l7.66,5.77A1.3,1.3,0,0,1,17.06,38"/><path class="cls-19" d="M24.7,42.1,7.87,64.42a1.15,1.15,0,0,1-1.62.22l-8.4-6.33a1.16,1.16,0,0,1-.23-1.62L14.44,34.37a1.16,1.16,0,0,1,1.62-.23l8.41,6.34a1.16,1.16,0,0,1,.23,1.62"/><path class="cls-20" d="M58.82,105.58c-.31-.39-.69-.82-.56-1.35a7.1,7.1,0,0,1,1.15-2.11,2.18,2.18,0,0,1,1.29-1,3.15,3.15,0,0,1,2.51.48,11.76,11.76,0,0,1,2.22,1.88,2.33,2.33,0,0,1,.57,2.18,3.64,3.64,0,0,1-2.34,2.58,2.83,2.83,0,0,1-2.46-.6,9.07,9.07,0,0,1-2.38-2"/><path class="cls-20" d="M38,102.18l-.16-.12a11.54,11.54,0,0,1-1.15-1.49l-.06-.08a8,8,0,0,1-1-1.2L34.74,98s.2-.31.24-.29l.2.09A4.89,4.89,0,0,1,37,99.21a8.71,8.71,0,0,1,1.26,2.85c.06.19-.17.15-.21.12"/><path class="cls-21" d="M58.63,125.17v-3.08a.3.3,0,0,0-.31-.3H56.93a.3.3,0,0,0-.31.3v3.08a.3.3,0,0,1-.3.31H54.15a.3.3,0,0,0-.26.45l3.47,6a.3.3,0,0,0,.53,0l3.47-6a.3.3,0,0,0-.26-.45H58.93A.31.31,0,0,1,58.63,125.17Z"/></g></svg>